<svg id="Capa_1" data-name="Capa 1" xmlns="http://www.w3.org/2000/svg" viewBox="0 0 373 916"><defs><style>.cls-1{fill:#e6e6e6;stroke:#383838;stroke-miterlimit:10;}.cls-2{fill:#383838;}</style></defs><title>Personaje_molde</title><path class="cls-1" d="M186.92,329.23a129.67,129.67,0,0,1-2.45,25.5H127.56a131.26,131.26,0,0,1-2.43-25.5c0-36.13,13.84-65.42,30.9-65.42S186.92,293.1,186.92,329.23Z"/><path class="cls-1" d="M253.73,329.24a129.67,129.67,0,0,1-2.44,25.49H194.38A130.45,130.45,0,0,1,192,329.24c0-36.14,13.82-65.43,30.89-65.43S253.73,293.1,253.73,329.24Z"/><path class="cls-2" d="M166.22,324.05c0,12.61-4.57,22.82-10.2,22.82-3.15,0-6-3.21-7.85-8.25l6.4-6.78-8.66-4.8c0-1-.08-2-.08-3,0-12.59,4.56-22.81,10.19-22.81S166.22,311.46,166.22,324.05Z"/><path class="cls-2" d="M233,324.05c0,12.61-4.57,22.82-10.2,22.82-3.15,0-6-3.21-7.85-8.25l6.4-6.78-8.66-4.8c0-1-.08-2-.08-3,0-12.59,4.56-22.81,10.19-22.81S233,311.46,233,324.05Z"/></svg>