<svg id="Capa_1" data-name="Capa 1" xmlns="http://www.w3.org/2000/svg" viewBox="0 0 373 916"><defs><style>.cls-1{fill:#383838;}</style></defs><title>Personaje_molde</title><path class="cls-1" d="M179.14,313.35v40.38a.81.81,0,0,1-.82.81H143.75a.82.82,0,0,1-.75-1.13L147.69,342l8.48-20.56H134.68a.83.83,0,0,1-.81-.66,41,41,0,0,1-.67-7.43c0-17,10.28-30.8,23-30.8S179.14,296.32,179.14,313.35Z"/><path class="cls-1" d="M245.66,313.35v40.38a.81.81,0,0,1-.82.81H210.27a.82.82,0,0,1-.75-1.13L214.21,342l8.48-20.56H201.2a.83.83,0,0,1-.81-.66,41,41,0,0,1-.67-7.43c0-17,10.28-30.8,23-30.8S245.66,296.32,245.66,313.35Z"/></svg>