<svg id="Capa_1" data-name="Capa 1" xmlns="http://www.w3.org/2000/svg" viewBox="0 0 373 916"><defs><style>.cls-1{fill:#383838;}</style></defs><title>Personaje_molde</title><path class="cls-1" d="M151.52,300.05H123.84C36,163.62,66.17,71.9,83.65,38.21a39.74,39.74,0,0,1,33.82-21.57h.26c12.1-.34,26.85,3.43,29.15,32.48a91,91,0,0,1-3.65,33.24C131.75,120.73,99.24,236.6,151.52,300.05Z"/><path class="cls-1" d="M255,300.05H227.34c52.29-63.45,19.78-179.32,8.31-217.69A90.52,90.52,0,0,1,232,49.12c2.29-29,17-32.82,29.14-32.48h.27a39.71,39.71,0,0,1,33.81,21.57C312.71,71.9,342.88,163.62,255,300.05Z"/></svg>