<svg id="Capa_1" data-name="Capa 1" xmlns="http://www.w3.org/2000/svg" viewBox="0 0 373 916"><defs><style>.cls-1{fill:#383838;}</style></defs><title>Personaje_molde</title><path class="cls-1" d="M126.67,406.58a143,143,0,0,0,30,19.78c10.63,5.14,22,8.51,33.51,8.87a69.8,69.8,0,0,0,33.42-7.77c10.49-5.3,20.05-12.69,29.11-20.88a89,89,0,0,1-26.44,25.69,66.78,66.78,0,0,1-17.34,7.62,36.93,36.93,0,0,1-4.65,1.09l-2.36.47c-.78.17-1.58.2-2.37.31l-2.39.24a19.19,19.19,0,0,1-2.39.16c-1.6,0-3.2.08-4.8.07-12.84-.41-25.19-4.68-35.9-11a97.34,97.34,0,0,1-15-11A84.9,84.9,0,0,1,126.67,406.58Z"/><path class="cls-1" d="M126.86,414.52a6.32,6.32,0,0,1-1.83-3.18,5.26,5.26,0,0,1,.56-4.09,4.08,4.08,0,0,1,1.87-1.55,4.58,4.58,0,0,1,2.15-.28A5.56,5.56,0,0,1,133,407c-1.22.32-2.32.46-3.2.76a3.56,3.56,0,0,0-1.07.5,2,2,0,0,0-.59.61,6.09,6.09,0,0,0-.73,2.32C127.21,412.19,127.1,413.28,126.86,414.52Z"/></svg>