<svg id="Capa_1" data-name="Capa 1" xmlns="http://www.w3.org/2000/svg" viewBox="0 0 373 916"><defs><style>.cls-1{fill:#383838;}</style></defs><title>Personaje_molde</title><path class="cls-1" d="M172.42,318.54c0,19.88-7.49,36-16.74,36-5.17,0-9.8-5.06-12.88-13l10.5-10.69-14.21-7.58c-.09-1.54-.14-3.11-.14-4.71,0-19.88,7.49-36,16.73-36S172.42,298.66,172.42,318.54Z"/><path class="cls-1" d="M239.91,318.54c0,19.88-7.49,36-16.73,36-5.18,0-9.81-5.06-12.88-13l10.49-10.69-14.2-7.58c-.09-1.54-.14-3.11-.14-4.71,0-19.88,7.49-36,16.73-36S239.91,298.66,239.91,318.54Z"/></svg>