<svg id="Capa_1" data-name="Capa 1" xmlns="http://www.w3.org/2000/svg" viewBox="0 0 373 916"><defs><style>.cls-1{fill:#383838;}</style></defs><title>Personaje_molde</title><path class="cls-1" d="M301.68,534.26c-7.23,2-17.12-2.48-18.45-10.48a139.59,139.59,0,0,0-5.78-23c-.58-1.71-1.21-3.41-1.87-5.09-.1-.26-.43-1-.62-1.5a.29.29,0,0,0,0-.1s0-.05,0-.07a1.2,1.2,0,0,1-.06-.17h0c-.11-.22-.19-.44-.3-.65C273.08,490,271.6,487,270,484a133.63,133.63,0,0,0-9.38-14.71l-.93-1.26c.12.14.21.26.3.35-.18-.22-.42-.51-.58-.72l.2.27a.69.69,0,0,1-.11-.13l-1.31-1.59,12.6,101.18a125.35,125.35,0,0,1-20.62,15.33,660.2,660.2,0,0,1,16.75,83c4.92,36.68,6.78,74.63.43,111.28h0c-.45.23-.9.48-1.32.74a15.39,15.39,0,0,0-2.68,2.06,7,7,0,0,0-1.72,2.39c-.63-.41-1.29-.8-2-1.16a37.64,37.64,0,0,0-9.25-3.32,50.38,50.38,0,0,0-9.22-1.19,272.68,272.68,0,0,0,4.34-55.94c-.68-42.34-7.41-85.64-18.59-127.23a117.59,117.59,0,0,1-75.59-.22c-11.21,41.65-18,85-18.64,127.45A273.37,273.37,0,0,0,137,776.55a50.28,50.28,0,0,0-9.21,1.19,37.35,37.35,0,0,0-9.25,3.32c-.67.36-1.34.75-2,1.16a7,7,0,0,0-1.7-2.39,16.26,16.26,0,0,0-2.69-2.06c-.43-.26-.87-.51-1.32-.74h0c-6.36-36.65-4.49-74.6.43-111.28a658.2,658.2,0,0,1,16.85-83.39,126.31,126.31,0,0,1-20-15l13-104.12c.1-.85.22-1.69.34-2.53-.61.65-1.2,1.31-1.79,2-1.39,1.59-2.73,3.22-4.05,4.85h0c-.15.21-1.35,1.74-1.68,2.19-.8,1.11-1.59,2.23-2.36,3.36a132.07,132.07,0,0,0-9,15.36q-1.14,2.31-2.21,4.66c-.19.41-.37.82-.56,1.24,0-.08,0-.15.07-.21l-.25.61a.6.6,0,0,1,.06-.11c0,.11-.08.22-.13.35-1.06,2.76-2.1,5.52-3,8.33a140.74,140.74,0,0,0-4.9,20.44c-1.37,8.28-11.21,12.13-18.46,10.48-8.45-1.93-11.75-10.74-10.46-18.46a148.29,148.29,0,0,1,16-46.4,155.67,155.67,0,0,1,34.53-42.78,119.46,119.46,0,0,1-27.75-55.83c0-.1,0-.21-.06-.31-.19-.92-.37-1.84-.52-2.76s-.31-1.8-.45-2.7c-.06-.33-.11-.65-.16-1-.09-.66-.18-1.31-.26-2,0-.33-.11-.66-.13-1-.1-.74-.18-1.48-.25-2.23,0-.28-.07-.57-.1-.86s-.07-.82-.12-1.23-.08-1.09-.13-1.64-.07-1-.1-1.52v-.05q-.08-1.05-.12-2.1c0-.86-.07-1.73-.1-2.6v-.13c0-.29,0-.59,0-.88,0-.79,0-1.58,0-2.37,0-64.17,47.71-116.19,106.55-116.19S296,281.3,296,345.47c0,.79,0,1.58,0,2.37,0,.3,0,.59,0,.88v.13c0,.87-.06,1.74-.1,2.6s-.07,1.41-.13,2.11v.1c0,.47-.06.94-.09,1.4,0,.62-.1,1.23-.16,1.84,0,.31-.06.62-.08.93s-.08.88-.14,1.31c-.06.59-.12,1.18-.21,1.77a14.2,14.2,0,0,1-.19,1.44c0,.49-.12,1-.19,1.47s-.13.94-.21,1.41c-.13.84-.28,1.68-.42,2.52s-.28,1.54-.44,2.3c-.05.26-.09.51-.15.76a118.89,118.89,0,0,1-29.71,57.94c25.14,22.69,42.85,53.36,48.44,87C313.49,523.83,310.17,531.92,301.68,534.26Z"/><path class="cls-1" d="M293.57,370.05c-.05.26-.09.51-.14.77h0C293.48,370.56,293.52,370.31,293.57,370.05Z"/></svg>